HIERARCHY
ROOT Hips
{
	OFFSET 0.000000 0.000000 0.000000
	CHANNELS 6 Xposition Yposition Zposition Zrotation Yrotation Xrotation 
	JOINT LHipJoint
	{
		OFFSET 0.000000 0.000000 0.000000
		CHANNELS 3 Zrotation Yrotation Xrotation
		JOINT LeftUpLeg
		{
			OFFSET 1.363060 -1.794630 0.839290
			CHANNELS 3 Zrotation Yrotation Xrotation
			JOINT LeftLeg
			{
				OFFSET 2.448110 -6.726130 0.000000
				CHANNELS 3 Zrotation Yrotation Xrotation
				JOINT LeftFoot
				{
					OFFSET 2.562200 -7.039590 0.000000
					CHANNELS 3 Zrotation Yrotation Xrotation
					JOINT LeftToeBase
					{
						OFFSET 0.157640 -0.433110 2.322550
						CHANNELS 3 Zrotation Yrotation Xrotation
						End Site
						{
							OFFSET 0.000000 0.000000 0.000000
						}
					}
				}
			}
		}
	}
	JOINT RHipJoint
	{
		OFFSET 0.000000 0.000000 0.000000
		CHANNELS 3 Zrotation Yrotation Xrotation
		JOINT RightUpLeg
		{
			OFFSET -1.305520 -1.794630 0.839290
			CHANNELS 3 Zrotation Yrotation Xrotation
			JOINT RightLeg
			{
				OFFSET -2.542530 -6.985550 0.000000
				CHANNELS 3 Zrotation Yrotation Xrotation
				JOINT RightFoot
				{
					OFFSET -2.568260 -7.056230 0.000000
					CHANNELS 3 Zrotation Yrotation Xrotation
					JOINT RightToeBase
					{
						OFFSET -0.164730 -0.452590 2.363150
						CHANNELS 3 Zrotation Yrotation Xrotation
						End Site
						{
							OFFSET 0.000000 0.000000 0.000000
						}
					}
				}
			}
		}
	}
	JOINT LowerBack
	{
		OFFSET 0.000000 0.000000 0.000000
		CHANNELS 3 Zrotation Yrotation Xrotation
		JOINT Spine
		{
			OFFSET 0.028270 2.035590 -0.193380
			CHANNELS 3 Zrotation Yrotation Xrotation
			JOINT Spine1
			{
				OFFSET 0.056720 2.048850 -0.042750
				CHANNELS 3 Zrotation Yrotation Xrotation
				JOINT Neck
				{
					OFFSET 0.000000 0.000000 0.000000
					CHANNELS 3 Zrotation Yrotation Xrotation
					JOINT Neck1
					{
						OFFSET -0.054170 1.746240 0.172020
						CHANNELS 3 Zrotation Yrotation Xrotation
						JOINT Head
						{
							OFFSET 0.104070 1.761360 -0.123970
							CHANNELS 3 Zrotation Yrotation Xrotation
							End Site
							{
								OFFSET 0.000000 0.000000 0.000000
							}
						}
					}
				}
				JOINT LeftShoulder
				{
					OFFSET 0.000000 0.000000 0.000000
					CHANNELS 3 Zrotation Yrotation Xrotation
					JOINT LeftArm
					{
						OFFSET 3.362410 1.200890 -0.311210
						CHANNELS 3 Zrotation Yrotation Xrotation
						JOINT LeftForeArm
						{
							OFFSET 4.983000 -0.000000 -0.000000
							CHANNELS 3 Zrotation Yrotation Xrotation
							JOINT LeftHand
							{
								OFFSET 3.483560 -0.000000 -0.000000
								CHANNELS 3 Zrotation Yrotation Xrotation
								JOINT LeftFingerBase
								{
									OFFSET 0.000000 0.000000 0.000000
									CHANNELS 3 Zrotation Yrotation Xrotation
									JOINT LeftHandIndex1
									{
										OFFSET 0.715260 -0.000000 -0.000000
										CHANNELS 3 Zrotation Yrotation Xrotation
										End Site
										{
											OFFSET 0.000000 0.000000 0.000000
										}
									}
								}
								JOINT LThumb
								{
									OFFSET 0.000000 0.000000 0.000000
									CHANNELS 3 Zrotation Yrotation Xrotation
									End Site
									{
										OFFSET 0.000000 0.000000 0.000000
									}
								}
							}
						}
					}
				}
				JOINT RightShoulder
				{
					OFFSET 0.000000 0.000000 0.000000
					CHANNELS 3 Zrotation Yrotation Xrotation
					JOINT RightArm
					{
						OFFSET -3.136600 1.374050 -0.404650
						CHANNELS 3 Zrotation Yrotation Xrotation
						JOINT RightForeArm
						{
							OFFSET -5.241900 -0.000000 -0.000000
							CHANNELS 3 Zrotation Yrotation Xrotation
							JOINT RightHand
							{
								OFFSET -3.444170 -0.000000 -0.000000
								CHANNELS 3 Zrotation Yrotation Xrotation
								JOINT RightFingerBase
								{
									OFFSET 0.000000 0.000000 0.000000
									CHANNELS 3 Zrotation Yrotation Xrotation
									JOINT RightHandIndex1
									{
										OFFSET -0.622530 -0.000000 -0.000000
										CHANNELS 3 Zrotation Yrotation Xrotation
										End Site
										{
											OFFSET 0.000000 0.000000 0.000000
										}
									}
								}
								JOINT RThumb
								{
									OFFSET 0.000000 0.000000 0.000000
									CHANNELS 3 Zrotation Yrotation Xrotation
									End Site
									{
										OFFSET 0.000000 0.000000 0.000000
									}
								}
							}
						}
					}
				}
			}
		}
	}
}
MOTION
Frames: 7
Frame Time: 0.008333
25.800722 16.911145 4.482467 151.762768 -88.105577 -125.700243 -13.038594 5.094216 1.111551 -2.914424 13.000850 -7.194757 -0.990272 0.638378 15.181401 0.942509 1.819603 23.873365 0.497300 0.000001 -86.281700 7.624129 -1.632076 5.463791 11.078491 7.607283 -48.350997 2.933833 -0.965418 26.135928 -0.527289 0.143757 -7.844342 -0.259100 -0.000000 -39.828200 7.312525 -2.339336 -6.935617 0.805387 -3.223934 -4.394357 -6.927434 -3.274822 -0.171224 8.363253 -9.074996 -8.380577 -3.890926 -0.280358 -0.275200 0.000000 0.000000 0.000000 -0.710210 4.570981 2.523927 -53.794279 -14.586922 7.607405 -1.100853 -74.060939 -0.032445 6.214544 -0.252568 -0.031484 -0.197005 0.361356 -0.000000 0.000000 0.000000 0.000000 0.000000 0.000000 0.000000 13.979767 -4.874601 1.111191 63.059662 5.659279 -5.720606 0.642638 73.535969 0.011107 1.686835 3.218922 0.052468 0.008600 -0.302571 -0.000000 0.000000 0.000000 0.000000 0.000000 0.000000 0.000000 
25.615579 16.885843 4.440319 143.385448 -88.099154 -117.548169 -13.184396 5.131482 1.176903 -2.562076 12.991649 -7.027290 -0.869521 0.678704 16.023700 1.008065 1.490052 25.012620 0.307601 0.000000 -85.150700 7.547180 -1.671808 5.400663 10.962907 7.792036 -48.158488 2.757412 -1.139386 28.052804 -0.615002 -0.012134 -8.686611 -0.207700 -0.000000 -36.222600 7.306282 -2.390536 -6.988355 0.814477 -3.278792 -4.387938 -6.923441 -3.331568 -0.106314 8.301546 -9.122591 -8.367333 -3.931305 -0.283886 -0.268976 0.000000 0.000000 0.000000 -0.754409 4.618717 2.512541 -53.603235 -14.203567 7.670655 -1.124083 -73.826781 -0.031322 6.146266 -0.275605 -0.032092 -0.196284 0.355422 -0.000000 0.000000 0.000000 0.000000 0.000000 0.000000 0.000000 14.166699 -4.997320 1.063271 62.761313 6.039808 -6.065134 0.655150 73.154889 0.009367 1.302092 3.245253 0.040768 0.013905 -0.301839 -0.000000 0.000000 0.000000 0.000000 0.000000 0.000000 0.000000 
25.430839 16.864799 4.398002 133.062336 -88.120432 -107.445228 -13.328285 5.124791 1.243971 -2.185100 12.951490 -6.953228 -0.728356 0.704607 16.965758 1.082602 1.194122 26.235904 0.124100 0.000000 -83.861900 7.453928 -1.752184 5.353228 10.911155 7.934601 -47.857754 2.617614 -1.279416 29.700029 -0.732827 -0.257596 -9.693715 -0.147000 0.000000 -33.100700 7.301989 -2.464800 -7.056425 0.827571 -3.358205 -4.384297 -6.918780 -3.413632 -0.041773 8.245443 -9.150077 -8.340458 -3.973835 -0.287761 -0.258756 0.000000 0.000000 0.000000 -0.790423 4.648446 2.504314 -53.466419 -13.807839 7.736242 -1.152639 -73.521238 -0.030100 6.059806 -0.287142 -0.031901 -0.195251 0.349083 -0.000000 0.000000 0.000000 0.000000 0.000000 0.000000 0.000000 14.369144 -5.117522 1.008635 62.478758 6.446431 -6.375091 0.668449 72.712591 0.007495 0.890897 3.267703 0.028066 0.019253 -0.300790 0.000000 0.000000 0.000000 0.000000 0.000000 0.000000 0.000000 
25.246990 16.848691 4.356218 118.849917 -88.183027 -93.468102 -13.448560 5.054369 1.298212 -1.750716 12.899095 -6.952949 -0.563215 0.710829 18.029917 1.159286 0.909307 27.479399 -0.061500 -0.000000 -81.726700 7.357470 -1.893393 5.318138 10.948075 8.016818 -47.411019 2.521839 -1.397229 31.031809 -0.880466 -0.596228 -10.831406 -0.072299 0.000000 -30.510101 7.340677 -2.574220 -7.119566 0.854515 -3.477081 -4.377172 -6.913513 -3.535086 0.029450 8.192584 -9.181753 -8.310940 -4.017230 -0.291729 -0.248016 0.000000 0.000000 0.000000 -0.833416 4.680601 2.502847 -53.376884 -13.457408 7.816917 -1.189049 -73.126010 -0.028799 5.950568 -0.282771 -0.030710 -0.194099 0.342550 0.000000 0.000000 0.000000 0.000000 0.000000 0.000000 0.000000 14.583998 -5.267529 0.944472 62.206836 6.914564 -6.630990 0.681901 72.211527 0.005457 0.447284 3.278254 0.014059 0.024676 -0.299342 -0.000000 0.000000 0.000000 0.000000 0.000000 0.000000 0.000000 
25.063904 16.837484 4.314188 95.351801 -88.276076 -70.199056 -13.430949 4.892811 1.340485 -1.259409 12.768805 -7.041226 -0.364969 0.683534 19.212078 1.231274 0.721779 28.705969 -0.194700 0.000000 -79.250800 7.350667 -2.112911 5.325309 11.065024 8.029209 -46.865744 2.471649 -1.517935 32.006385 -1.060725 -1.051048 -12.046673 0.018900 0.000000 -28.557200 7.513686 -2.738099 -7.211311 0.915326 -3.665044 -4.374534 -6.911295 -3.724058 0.099374 8.137484 -9.200187 -8.268296 -4.061794 -0.296043 -0.233254 0.000000 0.000000 0.000000 -0.871360 4.669280 2.515096 -53.334399 -13.115579 7.904900 -1.232375 -72.660632 -0.027425 5.813438 -0.257528 -0.028213 -0.192744 0.336083 0.000000 0.000000 0.000000 0.000000 0.000000 0.000000 0.000000 14.796878 -5.439854 0.867926 61.965794 7.387946 -6.851790 0.692409 71.681509 0.003287 -0.022585 3.281257 -0.000753 0.029938 -0.297545 -0.000000 0.000000 0.000000 0.000000 0.000000 0.000000 0.000000 
24.875255 16.833176 4.279697 19.135185 -89.073122 6.077538 -12.506819 5.028404 1.593702 -0.175190 11.913921 -7.876258 -0.357395 0.772561 20.894053 1.353272 0.609954 29.577696 -0.320200 -0.000000 -76.412700 8.197324 -1.742489 5.252618 12.116436 7.692847 -46.214499 2.479457 -1.506464 32.379997 -1.263078 -1.660432 -13.166276 0.127100 0.000000 -27.098600 9.219541 -2.705980 -7.546532 1.214528 -3.793348 -4.430164 -6.958485 -3.820205 0.180612 8.000729 -9.234185 -8.250994 -4.110925 -0.300883 -0.220197 0.000000 0.000000 0.000000 -1.085386 4.776839 2.501728 -53.385029 -12.767074 8.000106 -1.297507 -72.151471 -0.026177 5.649909 -0.209462 -0.024694 -0.186791 0.331635 0.000000 0.000000 0.000000 0.000000 0.000000 0.000000 0.000000 14.898787 -5.556962 0.785623 61.668490 7.870171 -6.976094 0.708957 71.142795 0.001232 -0.510297 3.275584 -0.016272 0.038560 -0.295129 0.000000 0.000000 0.000000 0.000000 0.000000 0.000000 0.000000 
24.694913 16.831784 4.237619 15.467090 -88.995979 9.584498 -12.540302 5.053505 1.666069 0.190786 11.791055 -8.206425 -0.286545 0.816146 22.155383 1.476989 0.785962 30.556595 -0.275600 0.000000 -73.087000 8.173992 -1.681872 5.182222 12.334456 7.781782 -45.322619 2.430830 -1.450870 32.805188 -1.443333 -2.150797 -14.287964 0.255800 -0.000000 -26.218600 9.355692 -2.691559 -7.599442 1.232795 -3.792481 -4.426465 -6.963951 -3.815801 0.246154 7.942933 -9.236534 -8.213362 -4.150076 -0.304451 -0.207691 0.000000 0.000000 0.000000 -1.128321 4.866321 2.482136 -53.389982 -12.447187 8.075138 -1.342609 -71.592215 -0.024592 5.452778 -0.143948 -0.020139 -0.183247 0.323633 0.000000 0.000000 0.000000 0.000000 0.000000 0.000000 0.000000 15.082686 -5.609660 0.726105 61.526660 8.392947 -7.090459 0.722766 70.584565 -0.001001 -1.013468 3.259950 -0.031974 0.044719 -0.294077 0.000000 0.000000 0.000000 0.000000 0.000000 0.000000 0.000000 
